<svg width="19" height="26" viewBox="0 0 19 26" fill="none" xmlns="http://www.w3.org/2000/svg">
<path d="M1.67716 10.2687C1.67716 8.14892 2.47231 6.11599 3.88769 4.61709C5.30307 3.11819 7.22274 2.27612 9.22439 2.27612C11.226 2.27612 13.1457 3.11819 14.5611 4.61709C15.9765 6.11599 16.7716 8.14892 16.7716 10.2687C16.7716 13.5474 14.2944 17.8208 9.22439 22.9396C4.15433 17.8208 1.67716 13.5474 1.67716 10.2687ZM9.22439 25.3657C15.3745 19.4459 18.4488 14.4124 18.4488 10.2687C18.4488 7.67787 17.4769 5.19316 15.747 3.36118C14.0171 1.5292 11.6708 0.5 9.22439 0.5C6.77793 0.5 4.43167 1.5292 2.70176 3.36118C0.971852 5.19316 0 7.67787 0 10.2687C0 14.4124 3.07424 19.4459 9.22439 25.3657Z" fill="#767676"/>
<path d="M9.22439 12.6345C8.52908 12.6345 7.86225 12.3515 7.37059 11.8479C6.87893 11.3443 6.60272 10.6612 6.60272 9.94898C6.60272 9.23674 6.87893 8.55367 7.37059 8.05005C7.86225 7.54642 8.52908 7.26348 9.22439 7.26348C9.9197 7.26348 10.5865 7.54642 11.0782 8.05005C11.5698 8.55367 11.8461 9.23674 11.8461 9.94898C11.8461 10.6612 11.5698 11.3443 11.0782 11.8479C10.5865 12.3515 9.9197 12.6345 9.22439 12.6345ZM9.22439 14.4248C10.3832 14.4248 11.4946 13.9533 12.3141 13.1139C13.1335 12.2745 13.5938 11.136 13.5938 9.94898C13.5938 8.76192 13.1335 7.62347 12.3141 6.78409C11.4946 5.94471 10.3832 5.47315 9.22439 5.47315C8.06554 5.47315 6.95415 5.94471 6.13472 6.78409C5.31529 7.62347 4.85494 8.76192 4.85494 9.94898C4.85494 11.136 5.31529 12.2745 6.13472 13.1139C6.95415 13.9533 8.06554 14.4248 9.22439 14.4248Z" fill="#767676"/>
</svg>
